<?xml version="1.0" encoding="UTF-8" standalone="no"?>
<!DOCTYPE svg PUBLIC "-//W3C//DTD SVG 1.1//EN" "http://www.w3.org/Graphics/SVG/1.1/DTD/svg11.dtd">
<svg version="1.1" xmlns="http://www.w3.org/2000/svg" xmlns:xlink="http://www.w3.org/1999/xlink" preserveAspectRatio="xMidYMid meet" viewBox="0 0 1350 1000"><defs><path d="M0 0L1350 0L1350 1000L0 1000L0 0Z" id="a1y6lSpMV4"></path><path d="M1461.95 790.83C1438.73 797.85 1412.36 803.54 1382.83 807.88C1339.58 814.01 1286.68 817.77 1236.63 807.64C1281.69 804.28 1439.42 792.52 1461.95 790.83ZM1543.29 750.6C1505.31 753.45 1201.49 776.28 1163.51 779.13C1172.14 784.7 1181.2 789.33 1190.34 793.31C1212.02 791.69 1320.41 783.58 1515.52 769C1528.48 761.18 1537.74 755.05 1543.29 750.6ZM1575.68 714.22C1530.81 717.57 1171.89 744.37 1127.02 747.72C1131.7 753.19 1136.75 758.36 1142.19 762.92C1170.26 760.82 1310.6 750.29 1563.23 731.33C1569.12 723.84 1573.27 718.13 1575.68 714.22ZM1590.13 678.84C1541.57 682.47 1153.08 711.57 1104.52 715.21C1107.54 720.82 1110.62 725.78 1114.03 730.78C1145.41 728.44 1302.28 716.76 1584.64 695.73C1587.22 688.31 1589.05 682.68 1590.13 678.84ZM1595.57 644.45C1545.04 648.23 1140.84 678.5 1090.32 682.29C1092.35 687.79 1094.1 692.94 1096.5 698.15C1129.67 695.66 1295.54 683.21 1594.1 660.79C1594.89 653.61 1595.38 648.17 1595.57 644.45ZM1595.02 610.39C1543.66 614.24 1132.8 645.1 1081.44 648.96C1082.5 654.36 1083.88 659.79 1085.3 664.9C1119.34 662.35 1289.53 649.6 1595.87 626.65C1595.55 619.58 1595.27 614.15 1595.02 610.39ZM1592.32 589.95C1591.52 585.24 1590.35 580.82 1589.19 576.4C1537.93 580.24 1127.88 610.93 1076.62 614.76C1076.99 620.41 1077.72 625.78 1078.49 630.81C1112.77 628.27 1284.16 615.54 1592.68 592.63C1592.59 591.52 1592.46 590.63 1592.32 589.95ZM1571.65 543.78C1521.99 547.49 1124.72 577.21 1075.06 580.92C1074.81 586.17 1074.89 591.46 1074.9 597.41C1108.69 594.87 1277.66 582.21 1581.81 559.42C1577.53 552.34 1574.14 547.13 1571.65 543.78ZM1538.17 512.03C1492.4 515.48 1126.26 543.08 1080.49 546.53C1078.94 551.64 1077.68 557.11 1077 563.31C1108.93 560.9 1268.59 548.86 1555.98 527.2C1548.36 520.42 1542.43 515.36 1538.17 512.03ZM1491.68 481.5C1452.11 484.48 1135.5 508.28 1095.93 511.25C1092.67 516.84 1089.74 522.46 1087.11 528.44C1115.64 526.27 1258.34 515.45 1515.18 495.97C1504.88 489.56 1497.05 484.74 1491.68 481.5ZM1441.21 451.2C1409.06 453.6 1151.85 472.84 1119.69 475.25C1115.75 481.09 1111.81 486.92 1107.9 492.44C1131.71 490.65 1250.75 481.74 1465.03 465.7C1454.3 459.24 1446.36 454.4 1441.21 451.2ZM1398.39 420.41C1372.56 422.35 1165.92 437.91 1140.09 439.86C1137.13 445.81 1134.2 451.43 1131.27 457.04C1150.33 455.6 1245.64 448.37 1417.21 435.35C1408.46 428.89 1402.18 423.91 1398.39 420.41ZM1369.25 388.15C1347.72 389.78 1175.43 402.78 1153.89 404.41C1152.23 410.5 1150.32 415.9 1148.08 421.26C1163.63 420.09 1241.41 414.23 1381.41 403.69C1375.77 396.9 1371.72 391.73 1369.25 388.15ZM1353.06 355.34C1333.95 356.77 1181.11 368.22 1162.01 369.65C1161.04 375.48 1159.77 380.96 1158.55 386.1C1171.93 385.11 1238.82 380.15 1359.23 371.21C1356.26 364.28 1354.2 358.99 1353.06 355.34ZM1347.84 321.76C1335.74 322.67 1275.27 327.25 1166.43 335.48L1164.6 352.11L1349.02 338.06C1348.26 330.94 1347.87 325.5 1347.84 321.76ZM1351.64 287.19C1333.33 288.57 1186.87 299.66 1168.56 301.05C1168.28 306.63 1168.32 312.25 1167.75 317.47C1179.82 316.55 1240.18 311.96 1348.83 303.71C1349.84 296.56 1350.78 291.05 1351.64 287.19ZM1358.28 262.83C1359.33 259.32 1360.7 255.84 1361.42 252.28C1342.12 253.73 1187.68 265.26 1168.38 266.7C1168.42 272.32 1168.5 277.61 1168.58 282.9C1181.09 281.98 1243.65 277.42 1356.26 269.21C1357 266.43 1357.68 264.31 1358.28 262.83ZM1368.52 217.74C1348.49 219.24 1188.2 231.18 1168.16 232.68C1168.24 237.97 1168.32 243.26 1168.36 248.87C1181.54 247.9 1247.43 243.05 1366.04 234.31C1367.29 226.96 1368.12 221.44 1368.52 217.74ZM1368.3 183.72C1355.1 184.71 1289.09 189.66 1170.26 198.58L1168.47 214.88L1369.15 199.99C1368.86 192.69 1368.57 187.27 1368.3 183.72ZM1360.11 150.14C1341.94 151.51 1196.55 162.45 1178.38 163.82C1176.79 169.26 1175.2 174.69 1173.9 180.49C1186.66 179.54 1250.45 174.78 1365.28 166.22C1363.22 158.95 1361.49 153.59 1360.11 150.14ZM1339.61 117.52C1325.09 118.59 1209.01 127.21 1194.5 128.29C1190.95 133.51 1188.02 139.13 1185.02 145.4C1196.1 144.58 1251.46 140.43 1351.11 132.97C1346.17 125.83 1342.34 120.68 1339.61 117.52ZM1320.93 101.27C1311.1 94.57 1300.08 89.73 1288.81 87.17C1283.81 87.55 1243.87 90.55 1238.88 90.92C1228.85 95.1 1218.93 101.27 1210.09 109.54C1232.26 107.89 1309.84 102.09 1320.93 101.27Z" id="a6DWKL7b9"></path><linearGradient id="gradientb3tFl90ONN" gradientUnits="userSpaceOnUse" x1="1613.19" y1="486.65" x2="1091.58" y2="429.28"><stop style="stop-color: #ffc06c;stop-opacity: 1" offset="0%"></stop><stop style="stop-color: #ff9d1d;stop-opacity: 1" offset="100%"></stop></linearGradient><path d="M1402.55 484.57C1464.69 414.83 1597.9 299.09 1553.82 177.72C1509.73 56.35 1392.81 161.99 1345.67 101.35C1298.54 40.71 1282.15 0.61 1255.59 32.02C1229.03 63.43 1299.95 99.95 1219.94 164.1C1139.93 228.25 1039.99 251.59 1082.76 330.89C1125.53 410.2 1194.38 255.37 1219.47 360.45C1244.55 465.54 1071.17 664.34 1257.61 709.93C1352.46 732.91 1340.41 554.32 1402.55 484.57Z" id="c2k0rdcA6x"></path><linearGradient id="gradientc5UdLK4Onm" gradientUnits="userSpaceOnUse" x1="1067.16" y1="343.67" x2="1544.87" y2="396.21"><stop style="stop-color: #ffc06c;stop-opacity: 1" offset="0%"></stop><stop style="stop-color: #ff9d1d;stop-opacity: 1" offset="100%"></stop></linearGradient><path d="M1552.75 289.22C1505 283.97 1478.47 281.05 1473.17 280.47C1467.62 279.86 1462.56 283.92 1461.95 289.46C1461.34 295.01 1465.4 300.08 1470.94 300.69C1476.23 301.27 1502.65 304.17 1550.2 309.4C1544.92 357.35 1541.99 383.98 1541.41 389.31C1540.8 394.86 1544.86 399.92 1550.41 400.53C1555.95 401.14 1561.02 397.08 1561.63 391.54C1562.21 386.25 1565.12 359.83 1570.35 312.28C1618.29 317.55 1644.93 320.48 1650.25 321.07C1655.8 321.68 1660.87 317.62 1661.48 312.07C1662.09 306.53 1658.02 301.46 1652.48 300.85C1647.2 300.27 1620.78 297.36 1573.22 292.13C1578.5 244.19 1581.43 217.55 1582.01 212.22C1582.62 206.68 1578.56 201.61 1573.02 201C1567.14 200.36 1562.08 204.42 1561.47 209.96C1560.3 220.53 1557.4 246.95 1552.75 289.22Z" id="b42tWFvlP9"></path><linearGradient id="gradientdg2LEWEKs" gradientUnits="userSpaceOnUse" x1="1550.73" y1="400.64" x2="1572.7" y2="200.87"><stop style="stop-color: #ffc06c;stop-opacity: 1" offset="0%"></stop><stop style="stop-color: #ff9d1d;stop-opacity: 1" offset="100%"></stop></linearGradient><path d="M87.83 697.38C108.54 775.48 175.65 815.19 157.91 846.22C116.65 918.38 30.08 895.53 -42.08 854.28C-114.25 813.02 -139.34 720.94 -98.09 648.77C-56.83 576.61 40.61 503.48 75.19 542.72C109.78 581.95 67.11 619.28 87.83 697.38Z" id="bW75ectx9"></path><linearGradient id="gradientctqnEgd1F" gradientUnits="userSpaceOnUse" x1="130.14" y1="572.16" x2="-33.83" y2="858.99"><stop style="stop-color: #ffbf69;stop-opacity: 1" offset="0%"></stop><stop style="stop-color: #ffa733;stop-opacity: 1" offset="100%"></stop></linearGradient><path d="M-195.15 560.76C-171.23 564.76 -145.07 571.35 -116.67 580.54C-75.18 594.21 -26.09 614.28 14.29 645.54C-27.6 628.58 -174.21 569.24 -195.15 560.76ZM-285.9 560.79C-250.59 575.06 31.89 689.23 67.21 703.5C61.94 694.68 55.86 686.51 49.43 678.9C29.28 670.75 -71.48 629.98 -252.85 556.6C-267.93 557.87 -278.95 559.26 -285.9 560.79ZM-331.05 579.05C-289.35 595.93 44.29 730.95 86 747.82C84.22 740.85 81.99 733.97 79.14 727.48C53.04 716.93 -77.44 664.17 -312.31 569.22C-320.91 573.33 -327.16 576.61 -331.05 579.05ZM-359.69 604.36C-314.55 622.62 46.61 768.68 91.76 786.94C91.54 780.57 90.98 774.76 90.13 768.77C60.97 756.96 -84.83 697.92 -347.28 591.65C-352.88 597.16 -357.02 601.4 -359.69 604.36ZM-379.8 632.79C-332.83 651.78 42.93 803.75 89.9 822.75C90.52 816.91 91.23 811.53 91.4 805.79C60.55 793.32 -93.66 730.99 -371.24 618.79C-375.13 624.87 -377.98 629.54 -379.8 632.79ZM-394.41 663.56C-346.65 682.86 35.35 837.26 83.1 856.56C84.54 851.25 85.71 845.77 86.7 840.56C55.06 827.76 -103.16 763.78 -387.96 648.6C-390.81 655.09 -392.96 660.08 -394.41 663.56ZM-401.04 683.08C-402.4 687.66 -403.32 692.13 -404.23 696.61C-356.58 715.89 24.61 870.08 72.26 889.35C74.44 884.12 76.16 878.99 77.7 874.14C45.84 861.23 -113.45 796.69 -400.18 680.51C-400.58 681.55 -400.87 682.41 -401.04 683.08ZM-402.97 733.63C-356.81 752.31 12.5 901.71 58.67 920.38C61.22 915.78 63.49 911 66.12 905.67C34.7 892.97 -122.39 829.45 -405.15 715.11C-404.44 723.35 -403.72 729.52 -402.97 733.63ZM-387.02 776.92C-344.46 794.11 -4 931.62 38.55 948.8C42.21 944.91 45.77 940.56 49.12 935.31C19.43 923.32 -129.03 863.36 -396.27 755.44C-392.44 764.89 -389.36 772.05 -387.02 776.92ZM-358.88 824.89C-322.08 839.76 -27.71 958.72 9.09 973.59C14.48 970.02 19.6 966.28 24.61 962.09C-1.93 951.39 -134.64 897.86 -373.53 801.51C-367.14 811.82 -362.25 819.62 -358.88 824.89ZM-327.06 874.43C-297.17 886.52 -58.06 983.24 -28.17 995.33C-22.05 991.85 -15.93 988.36 -9.98 985.15C-32.12 976.2 -142.79 931.44 -341.99 850.87C-335.23 861.42 -330.25 869.27 -327.06 874.43ZM-302.31 921C-278.29 930.71 -86.15 1008.32 -62.14 1018.02C-56.85 1014 -51.73 1010.26 -46.61 1006.52C-64.34 999.37 -152.99 963.62 -312.56 899.27C-307.58 908.94 -304.16 916.19 -302.31 921ZM-290.49 962.83C-270.46 970.91 -110.25 1035.6 -90.22 1043.69C-86.03 1038.96 -81.92 1034.97 -77.54 1031.15C-92 1025.31 -164.32 996.1 -294.5 943.52C-292.45 952.09 -291.11 958.53 -290.49 962.83ZM-290.5 999.42C-272.74 1006.6 -130.66 1064.07 -112.9 1071.25C-109.44 1066.45 -105.88 1062.1 -102.5 1058.03C-114.94 1052.99 -177.11 1027.8 -289.01 982.46C-289.41 989.99 -289.91 995.64 -290.5 999.42ZM-300.71 1031.84C-289.46 1036.38 -233.23 1059.07 -132 1099.93L-122.99 1085.83L-294.54 1016.7C-297.02 1023.42 -299.07 1028.47 -300.71 1031.84ZM-319.44 1061.14C-302.41 1068.01 -166.2 1122.97 -149.17 1129.84C-146.44 1124.96 -143.99 1119.91 -141.17 1115.49C-152.39 1110.96 -208.54 1088.32 -309.6 1047.57C-313.67 1053.54 -316.95 1058.06 -319.44 1061.14ZM-336.18 1080.04C-338.68 1082.72 -341.45 1085.24 -343.67 1088.1C-325.73 1095.36 -182.17 1153.45 -164.23 1160.72C-161.78 1155.66 -159.5 1150.89 -157.23 1146.11C-168.85 1141.38 -226.95 1117.75 -331.54 1075.21C-333.44 1077.37 -334.99 1078.98 -336.18 1080.04ZM-365.34 1115.92C-346.72 1123.46 -197.73 1183.77 -179.11 1191.31C-176.83 1186.54 -174.56 1181.76 -172.11 1176.71C-184.35 1171.74 -245.58 1146.89 -355.78 1102.17C-360.15 1108.2 -363.34 1112.78 -365.34 1115.92ZM-380.22 1146.52C-367.95 1151.48 -306.57 1176.29 -196.1 1220.95L-187.27 1207.13L-373.78 1131.55C-376.74 1138.23 -378.89 1143.21 -380.22 1146.52ZM-387.76 1180.25C-370.86 1187.08 -235.68 1241.69 -218.78 1248.52C-214.94 1244.35 -211.11 1240.18 -207.38 1235.55C-219.24 1230.75 -278.53 1206.75 -385.26 1163.54C-386.63 1170.97 -387.47 1176.54 -387.76 1180.25ZM-383.83 1218.58C-370.34 1224.05 -262.46 1267.76 -248.97 1273.22C-243.48 1270.11 -238.36 1266.37 -232.9 1262.08C-243.19 1257.92 -294.65 1237.1 -387.29 1199.63C-386.03 1208.22 -384.88 1214.54 -383.83 1218.58ZM-374.29 1241.43C-368.44 1251.78 -360.71 1261.01 -351.74 1268.3C-347.1 1270.17 -309.96 1285.18 -305.32 1287.06C-294.47 1287.76 -282.84 1286.62 -271.26 1283.12C-291.87 1274.78 -363.98 1245.6 -374.29 1241.43Z" id="b1Em0blLyc"></path><linearGradient id="gradientaaAOW8Yiq" gradientUnits="userSpaceOnUse" x1="-465.52" y1="766.44" x2="-23.34" y2="1049.01"><stop style="stop-color: #ffc06c;stop-opacity: 1" offset="0%"></stop><stop style="stop-color: #ff9d1d;stop-opacity: 1" offset="100%"></stop></linearGradient></defs><g><g><g><use xlink:href="#a1y6lSpMV4" opacity="1" fill="#1e1e1e" fill-opacity="1"></use></g><g><g><use xlink:href="#a6DWKL7b9" opacity="1" fill="url(#gradientb3tFl90ONN)"></use><g><use xlink:href="#a6DWKL7b9" opacity="1" fill-opacity="0" stroke="#000000" stroke-width="1" stroke-opacity="0"></use></g></g><g><use xlink:href="#c2k0rdcA6x" opacity="1" fill="url(#gradientc5UdLK4Onm)"></use><g><use xlink:href="#c2k0rdcA6x" opacity="1" fill-opacity="0" stroke="#000000" stroke-width="1" stroke-opacity="0"></use></g></g></g><g><use xlink:href="#b42tWFvlP9" opacity="1" fill="url(#gradientdg2LEWEKs)"></use><g><use xlink:href="#b42tWFvlP9" opacity="1" fill-opacity="0" stroke="#000000" stroke-width="1" stroke-opacity="0"></use></g></g><g><use xlink:href="#bW75ectx9" opacity="1" fill="url(#gradientctqnEgd1F)"></use></g><g><use xlink:href="#b1Em0blLyc" opacity="1" fill="url(#gradientaaAOW8Yiq)"></use><g><use xlink:href="#b1Em0blLyc" opacity="1" fill-opacity="0" stroke="#000000" stroke-width="1" stroke-opacity="0"></use></g></g></g></g></svg>
