<?xml version="1.0" encoding="UTF-8" standalone="no"?>
<!DOCTYPE svg PUBLIC "-//W3C//DTD SVG 1.1//EN" "http://www.w3.org/Graphics/SVG/1.1/DTD/svg11.dtd">
<svg version="1.1" xmlns="http://www.w3.org/2000/svg" xmlns:xlink="http://www.w3.org/1999/xlink" preserveAspectRatio="xMidYMid meet" viewBox="0 0 1350 1000" width="1350" height="1000"><defs><path d="M0 0L1350 0L1350 1000L0 1000L0 0Z" id="b2ZZC5ioW9"></path><path d="M1461.95 790.83C1438.73 797.85 1412.36 803.54 1382.83 807.88C1339.58 814.01 1286.68 817.77 1236.63 807.64C1281.69 804.28 1439.42 792.52 1461.95 790.83ZM1543.29 750.6C1505.31 753.45 1201.49 776.28 1163.51 779.13C1172.14 784.7 1181.2 789.33 1190.34 793.31C1212.02 791.69 1320.41 783.58 1515.52 769C1528.48 761.18 1537.74 755.05 1543.29 750.6ZM1575.68 714.22C1530.81 717.57 1171.89 744.37 1127.02 747.72C1131.7 753.19 1136.75 758.36 1142.19 762.92C1170.26 760.82 1310.6 750.29 1563.23 731.33C1569.12 723.84 1573.27 718.13 1575.68 714.22ZM1590.13 678.84C1541.57 682.47 1153.08 711.57 1104.52 715.21C1107.54 720.82 1110.62 725.78 1114.03 730.78C1145.41 728.44 1302.28 716.76 1584.64 695.73C1587.22 688.31 1589.05 682.68 1590.13 678.84ZM1595.57 644.45C1545.04 648.23 1140.84 678.5 1090.32 682.29C1092.35 687.79 1094.1 692.94 1096.5 698.15C1129.67 695.66 1295.54 683.21 1594.1 660.79C1594.89 653.61 1595.38 648.17 1595.57 644.45ZM1595.02 610.39C1543.66 614.24 1132.8 645.1 1081.44 648.96C1082.5 654.36 1083.88 659.79 1085.3 664.9C1119.34 662.35 1289.53 649.6 1595.87 626.65C1595.55 619.58 1595.27 614.15 1595.02 610.39ZM1592.32 589.95C1591.52 585.24 1590.35 580.82 1589.19 576.4C1537.93 580.24 1127.88 610.93 1076.62 614.76C1076.99 620.41 1077.72 625.78 1078.49 630.81C1112.77 628.27 1284.16 615.54 1592.68 592.63C1592.59 591.52 1592.46 590.63 1592.32 589.95ZM1571.65 543.78C1521.99 547.49 1124.72 577.21 1075.06 580.92C1074.81 586.17 1074.89 591.46 1074.9 597.41C1108.69 594.87 1277.66 582.21 1581.81 559.42C1577.53 552.34 1574.14 547.13 1571.65 543.78ZM1538.17 512.03C1492.4 515.48 1126.26 543.08 1080.49 546.53C1078.94 551.64 1077.68 557.11 1077 563.31C1108.93 560.9 1268.59 548.86 1555.98 527.2C1548.36 520.42 1542.43 515.36 1538.17 512.03ZM1491.68 481.5C1452.11 484.48 1135.5 508.28 1095.93 511.25C1092.67 516.84 1089.74 522.46 1087.11 528.44C1115.64 526.27 1258.34 515.45 1515.18 495.97C1504.88 489.56 1497.05 484.74 1491.68 481.5ZM1441.21 451.2C1409.06 453.6 1151.85 472.84 1119.69 475.25C1115.75 481.09 1111.81 486.92 1107.9 492.44C1131.71 490.65 1250.75 481.74 1465.03 465.7C1454.3 459.24 1446.36 454.4 1441.21 451.2ZM1398.39 420.41C1372.56 422.35 1165.92 437.91 1140.09 439.86C1137.13 445.81 1134.2 451.43 1131.27 457.04C1150.33 455.6 1245.64 448.37 1417.21 435.35C1408.46 428.89 1402.18 423.91 1398.39 420.41ZM1369.25 388.15C1347.72 389.78 1175.43 402.78 1153.89 404.41C1152.23 410.5 1150.32 415.9 1148.08 421.26C1163.63 420.09 1241.41 414.23 1381.41 403.69C1375.77 396.9 1371.72 391.73 1369.25 388.15ZM1353.06 355.34C1333.95 356.77 1181.11 368.22 1162.01 369.65C1161.04 375.48 1159.77 380.96 1158.55 386.1C1171.93 385.11 1238.82 380.15 1359.23 371.21C1356.26 364.28 1354.2 358.99 1353.06 355.34ZM1347.84 321.76C1335.74 322.67 1275.27 327.25 1166.43 335.48L1164.6 352.11L1349.02 338.06C1348.26 330.94 1347.87 325.5 1347.84 321.76ZM1351.64 287.19C1333.33 288.57 1186.87 299.66 1168.56 301.05C1168.28 306.63 1168.32 312.25 1167.75 317.47C1179.82 316.55 1240.18 311.96 1348.83 303.71C1349.84 296.56 1350.78 291.05 1351.64 287.19ZM1358.28 262.83C1359.33 259.32 1360.7 255.84 1361.42 252.28C1342.12 253.73 1187.68 265.26 1168.38 266.7C1168.42 272.32 1168.5 277.61 1168.58 282.9C1181.09 281.98 1243.65 277.42 1356.26 269.21C1357 266.43 1357.68 264.31 1358.28 262.83ZM1368.52 217.74C1348.49 219.24 1188.2 231.18 1168.16 232.68C1168.24 237.97 1168.32 243.26 1168.36 248.87C1181.54 247.9 1247.43 243.05 1366.04 234.31C1367.29 226.96 1368.12 221.44 1368.52 217.74ZM1368.3 183.72C1355.1 184.71 1289.09 189.66 1170.26 198.58L1168.47 214.88L1369.15 199.99C1368.86 192.69 1368.57 187.27 1368.3 183.72ZM1360.11 150.14C1341.94 151.51 1196.55 162.45 1178.38 163.82C1176.79 169.26 1175.2 174.69 1173.9 180.49C1186.66 179.54 1250.45 174.78 1365.28 166.22C1363.22 158.95 1361.49 153.59 1360.11 150.14ZM1339.61 117.52C1325.09 118.59 1209.01 127.21 1194.5 128.29C1190.95 133.51 1188.02 139.13 1185.02 145.4C1196.1 144.58 1251.46 140.43 1351.11 132.97C1346.17 125.83 1342.34 120.68 1339.61 117.52ZM1320.93 101.27C1311.1 94.57 1300.08 89.73 1288.81 87.17C1283.81 87.55 1243.87 90.55 1238.88 90.92C1228.85 95.1 1218.93 101.27 1210.09 109.54C1232.26 107.89 1309.84 102.09 1320.93 101.27Z" id="aEhALMuE1"></path><linearGradient id="gradienthci3A4O7h" gradientUnits="userSpaceOnUse" x1="1613.19" y1="486.65" x2="1091.58" y2="429.28"><stop style="stop-color: #c2c2c2;stop-opacity: 1" offset="0%"></stop><stop style="stop-color: #454545;stop-opacity: 1" offset="100%"></stop></linearGradient><path d="M1402.55 484.57C1464.69 414.83 1597.9 299.09 1553.82 177.72C1509.73 56.35 1392.81 161.99 1345.67 101.35C1298.54 40.71 1282.15 0.61 1255.59 32.02C1229.03 63.43 1299.95 99.95 1219.94 164.1C1139.93 228.25 1039.99 251.59 1082.76 330.89C1125.53 410.2 1194.38 255.37 1219.47 360.45C1244.55 465.54 1071.17 664.34 1257.61 709.93C1352.46 732.91 1340.41 554.32 1402.55 484.57Z" id="b45lNkARrX"></path><linearGradient id="gradientftE2OL6NE" gradientUnits="userSpaceOnUse" x1="1544.84" y1="396.58" x2="1066.74" y2="343.99"><stop style="stop-color: #454545;stop-opacity: 1" offset="0%"></stop><stop style="stop-color: #c2c2c2;stop-opacity: 1" offset="100%"></stop></linearGradient><path d="M87.83 697.38C108.54 775.48 175.65 815.19 157.91 846.22C116.65 918.38 30.08 895.53 -42.08 854.28C-114.25 813.02 -139.34 720.94 -98.09 648.77C-56.83 576.61 40.61 503.48 75.19 542.72C109.78 581.95 67.11 619.28 87.83 697.38Z" id="a19xDwhQEi"></path><linearGradient id="gradienta15EXVZwis" gradientUnits="userSpaceOnUse" x1="130.14" y1="572.16" x2="-33.83" y2="858.99"><stop style="stop-color: #aaaaaa;stop-opacity: 1" offset="0%"></stop><stop style="stop-color: #454545;stop-opacity: 1" offset="100%"></stop></linearGradient><path d="M-205.79 1023.52C-181.86 1019.52 -155.71 1012.93 -127.31 1003.74C-85.81 990.07 -36.73 970 3.65 938.74C-38.24 955.7 -184.85 1015.04 -205.79 1023.52ZM-296.54 1023.49C-261.23 1009.22 21.26 895.06 56.57 880.78C51.3 889.6 45.22 897.77 38.8 905.38C18.64 913.53 -82.12 954.3 -263.49 1027.68C-278.57 1026.42 -289.59 1025.02 -296.54 1023.49ZM-341.69 1005.23C-299.99 988.35 33.65 853.34 75.36 836.46C73.58 843.43 71.36 850.31 68.5 856.8C42.4 867.35 -88.08 920.11 -322.95 1015.06C-331.55 1010.95 -337.8 1007.67 -341.69 1005.23ZM-370.33 979.92C-325.18 961.66 35.98 815.6 81.12 797.34C80.91 803.71 80.34 809.52 79.49 815.51C50.33 827.32 -95.47 886.36 -357.92 992.63C-363.52 987.12 -367.66 982.88 -370.33 979.92ZM-390.44 951.49C-343.47 932.5 32.3 780.53 79.27 761.53C79.88 767.37 80.6 772.75 80.76 778.49C49.92 790.96 -104.3 853.29 -381.88 965.49C-385.77 959.41 -388.62 954.74 -390.44 951.49ZM-405.04 920.72C-357.29 901.42 24.71 747.02 72.46 727.72C73.9 733.03 75.07 738.51 76.06 743.72C44.42 756.52 -113.8 820.5 -398.6 935.68C-401.45 929.19 -403.59 924.2 -405.04 920.72ZM-411.67 901.2C-413.04 896.62 -413.96 892.15 -414.87 887.67C-367.22 868.39 13.98 714.2 61.63 694.93C63.8 700.16 65.52 705.29 67.06 710.14C35.21 723.05 -124.09 787.59 -410.81 903.77C-411.22 902.73 -411.5 901.87 -411.67 901.2ZM-413.61 850.65C-367.44 831.97 1.86 682.57 48.03 663.9C50.58 668.5 52.85 673.28 55.48 678.61C24.06 691.31 -133.03 754.83 -415.79 869.17C-415.08 860.93 -414.35 854.76 -413.61 850.65ZM-397.66 807.36C-355.1 790.17 -14.64 652.66 27.92 635.48C31.57 639.37 35.13 643.72 38.49 648.97C8.79 660.96 -139.67 720.92 -406.9 828.84C-403.08 819.39 -400 812.23 -397.66 807.36ZM-369.51 759.39C-332.72 744.52 -38.35 625.56 -1.55 610.69C3.84 614.26 8.96 618 13.97 622.19C-12.57 632.9 -145.28 686.42 -384.17 782.77C-377.78 772.46 -372.89 764.66 -369.51 759.39ZM-337.7 709.85C-307.81 697.76 -68.7 601.04 -38.81 588.95C-32.69 592.43 -26.57 595.92 -20.62 599.13C-42.75 608.08 -153.42 652.84 -352.63 733.41C-345.87 722.86 -340.89 715.01 -337.7 709.85ZM-312.95 663.28C-288.93 653.57 -96.79 575.96 -72.78 566.26C-67.48 570.28 -62.37 574.02 -57.25 577.76C-74.98 584.91 -163.63 620.66 -323.2 685.01C-318.22 675.34 -314.8 668.09 -312.95 663.28ZM-301.12 621.45C-281.1 613.37 -120.89 548.68 -100.86 540.59C-96.67 545.32 -92.56 549.31 -88.18 553.13C-102.64 558.97 -174.96 588.18 -305.14 640.76C-303.09 632.19 -301.75 625.75 -301.12 621.45ZM-301.14 584.86C-283.38 577.68 -141.3 520.21 -123.54 513.03C-120.08 517.83 -116.52 522.18 -113.14 526.25C-125.58 531.29 -187.75 556.48 -299.65 601.82C-300.05 594.29 -300.55 588.64 -301.14 584.86ZM-311.35 552.44C-300.1 547.9 -243.86 525.21 -142.64 484.35L-133.63 498.45L-305.18 567.58C-307.66 560.86 -309.71 555.81 -311.35 552.44ZM-330.07 523.14C-313.05 516.27 -176.84 461.31 -159.81 454.44C-157.08 459.32 -154.63 464.37 -151.8 468.79C-163.03 473.32 -219.18 495.96 -320.23 536.71C-324.31 530.74 -327.59 526.22 -330.07 523.14ZM-346.82 504.24C-349.32 501.56 -352.09 499.04 -354.31 496.18C-336.36 488.92 -192.81 430.83 -174.87 423.56C-172.42 428.62 -170.14 433.39 -167.87 438.17C-179.49 442.9 -237.59 466.53 -342.18 509.07C-344.08 506.91 -345.63 505.3 -346.82 504.24ZM-375.98 468.36C-357.36 460.82 -208.37 400.51 -189.75 392.97C-187.47 397.74 -185.2 402.52 -182.75 407.57C-194.99 412.54 -256.21 437.39 -366.42 482.11C-370.79 476.08 -373.98 471.5 -375.98 468.36ZM-390.86 437.76C-378.58 432.8 -317.21 407.99 -206.74 363.33L-197.9 377.15L-384.41 452.73C-387.38 446.05 -389.53 441.07 -390.86 437.76ZM-398.4 404.03C-381.5 397.21 -246.31 342.59 -229.42 335.76C-225.58 339.93 -221.75 344.11 -218.02 348.73C-229.87 353.53 -289.17 377.53 -395.9 420.74C-397.27 413.31 -398.11 407.74 -398.4 404.03ZM-394.47 365.7C-380.98 360.23 -273.1 316.52 -259.61 311.06C-254.12 314.17 -249 317.91 -243.53 322.2C-253.83 326.37 -305.29 347.18 -397.93 384.65C-396.67 376.06 -395.52 369.74 -394.47 365.7ZM-384.92 342.85C-379.08 332.5 -371.35 323.27 -362.38 315.98C-357.73 314.11 -320.6 299.1 -315.96 297.22C-305.11 296.52 -293.48 297.66 -281.9 301.16C-302.51 309.5 -374.62 338.68 -384.92 342.85Z" id="h1pgXTRTMf"></path><linearGradient id="gradientcokvA2okh" gradientUnits="userSpaceOnUse" x1="-476.16" y1="817.84" x2="-33.98" y2="535.28"><stop style="stop-color: #c2c2c2;stop-opacity: 1" offset="0%"></stop><stop style="stop-color: #454545;stop-opacity: 1" offset="100%"></stop></linearGradient></defs><g><g><g><use xlink:href="#b2ZZC5ioW9" opacity="1" fill="#1e1e1e" fill-opacity="1"></use></g><g><use xlink:href="#aEhALMuE1" opacity="1" fill="url(#gradienthci3A4O7h)"></use><g><use xlink:href="#aEhALMuE1" opacity="1" fill-opacity="0" stroke="#000000" stroke-width="1" stroke-opacity="0"></use></g></g><g><use xlink:href="#b45lNkARrX" opacity="1" fill="url(#gradientftE2OL6NE)"></use><g><use xlink:href="#b45lNkARrX" opacity="1" fill-opacity="0" stroke="#000000" stroke-width="1" stroke-opacity="0"></use></g></g><g><use xlink:href="#a19xDwhQEi" opacity="1" fill="url(#gradienta15EXVZwis)"></use></g><g><use xlink:href="#h1pgXTRTMf" opacity="1" fill="url(#gradientcokvA2okh)"></use><g><use xlink:href="#h1pgXTRTMf" opacity="1" fill-opacity="0" stroke="#000000" stroke-width="1" stroke-opacity="0"></use></g></g></g></g></svg>