<?xml version="1.0" encoding="UTF-8" standalone="no"?>
<!DOCTYPE svg PUBLIC "-//W3C//DTD SVG 1.1//EN" "http://www.w3.org/Graphics/SVG/1.1/DTD/svg11.dtd">
<svg version="1.1" xmlns="http://www.w3.org/2000/svg" xmlns:xlink="http://www.w3.org/1999/xlink" preserveAspectRatio="xMidYMid meet" viewBox="0 0 640 640" width="640" height="640"><defs><path d="M0 0L640 0L640 643.19L0 643.19L0 0Z" id="b47VeWxyDH"></path><path d="M437.89 62.52L439.42 62.68L440.95 62.91L442.47 63.19L443.99 63.54L445.5 63.94L447 64.42L448.49 64.95L449.97 65.55L451.43 66.21L452.88 66.94L471.67 76.86L473.55 77.91L475.38 79.02L477.15 80.2L478.85 81.44L480.5 82.73L482.08 84.09L483.6 85.49L485.05 86.95L486.44 88.46L487.76 90.02L489.02 91.62L490.21 93.27L491.33 94.96L492.39 96.68L493.37 98.44L494.29 100.24L495.13 102.07L495.91 103.92L496.61 105.81L497.24 107.72L497.79 109.65L498.27 111.6L498.68 113.57L499.01 115.55L499.27 117.55L499.45 119.56L499.55 121.58L499.57 123.61L499.52 125.64L499.38 127.67L499.17 129.7L498.87 131.73L498.49 133.76L498.03 135.78L497.49 137.79L496.86 139.78L496.15 141.77L495.35 143.73L494.47 145.68L493.5 147.61L404.05 316.94L405.79 319.63L409.06 325.13L412.12 330.76L414.97 336.52L417.6 342.4L420 348.4L422.17 354.51L424.11 360.73L425.8 367.06L427.25 373.47L428.45 379.98L429.39 386.58L430.07 393.26L430.48 400.01L430.62 406.83L430.48 413.65L430.07 420.4L429.39 427.08L428.45 433.68L427.25 440.19L425.8 446.61L424.11 452.93L422.17 459.15L420 465.26L417.6 471.26L414.97 477.15L412.12 482.9L409.06 488.54L405.79 494.03L402.32 499.39L398.65 504.6L394.79 509.67L390.74 514.57L386.5 519.32L382.09 523.9L377.51 528.31L372.77 532.54L367.86 536.6L362.8 540.46L357.58 544.13L352.23 547.6L346.73 550.87L341.1 553.93L335.34 556.78L329.46 559.41L323.45 561.81L317.34 563.98L311.12 565.92L304.8 567.61L298.38 569.06L291.87 570.26L285.27 571.2L278.6 571.88L271.84 572.29L265.02 572.43L258.2 572.29L251.45 571.88L244.77 571.2L238.18 570.26L231.67 569.06L225.25 567.61L218.93 565.92L212.71 563.98L206.59 561.81L200.59 559.41L194.71 556.78L188.95 553.93L183.32 550.87L177.82 547.6L172.46 544.13L167.25 540.46L162.19 536.6L157.28 532.54L152.53 528.31L147.95 523.9L143.54 519.32L139.31 514.57L135.26 509.67L131.39 504.6L127.72 499.39L124.25 494.03L120.98 488.54L117.92 482.9L115.08 477.15L112.45 471.26L110.05 465.26L107.87 459.15L105.94 452.93L104.24 446.61L102.79 440.19L101.6 433.68L100.65 427.08L99.98 420.4L99.56 413.65L99.43 406.83L99.56 400.01L99.98 393.26L100.65 386.58L101.6 379.98L102.79 373.47L104.24 367.06L105.94 360.73L107.87 354.51L110.05 348.4L112.45 342.4L115.08 336.52L117.92 330.76L120.98 325.13L124.25 319.63L127.72 314.27L128.97 312.5L41.87 147.61L40.9 145.68L40.02 143.73L39.22 141.77L38.51 139.78L37.88 137.79L37.34 135.78L36.88 133.76L36.5 131.73L36.2 129.7L35.99 127.67L35.85 125.64L35.8 123.61L35.82 121.58L35.92 119.56L36.1 117.55L36.36 115.55L36.69 113.57L37.1 111.6L37.58 109.65L38.13 107.72L38.76 105.81L39.46 103.92L40.24 102.07L41.08 100.24L42 98.44L42.98 96.68L44.04 94.96L45.16 93.27L46.35 91.62L47.61 90.02L48.93 88.46L50.32 86.95L51.77 85.49L53.29 84.09L54.87 82.73L56.52 81.44L58.22 80.2L59.99 79.02L61.82 77.91L63.7 76.86L82.49 66.94L83.94 66.21L85.4 65.55L86.88 64.95L88.37 64.42L89.87 63.94L91.38 63.54L92.9 63.19L94.42 62.91L95.95 62.68L97.48 62.52L99.01 62.42L100.53 62.38L102.06 62.4L103.57 62.47L105.09 62.61L106.59 62.8L108.08 63.05L109.56 63.35L111.03 63.72L112.48 64.14L113.92 64.61L115.33 65.14L116.73 65.72L118.1 66.35L119.45 67.04L120.78 67.78L122.07 68.57L123.34 69.42L124.58 70.31L125.79 71.26L126.96 72.25L128.09 73.3L129.19 74.39L130.25 75.53L131.26 76.72L132.24 77.96L133.17 79.24L134.05 80.57L134.89 81.94L135.68 83.36L222.07 246.9L225.25 246.05L231.67 244.6L238.18 243.4L244.77 242.46L251.45 241.78L258.2 241.37L265.02 241.23L271.84 241.37L278.6 241.78L285.27 242.46L291.87 243.4L298.38 244.6L304.8 246.05L311.12 247.75L312.61 248.21L399.69 83.36L400.48 81.94L401.32 80.57L402.2 79.24L403.13 77.96L404.11 76.72L405.12 75.53L406.18 74.39L407.28 73.3L408.41 72.25L409.58 71.26L410.79 70.31L412.03 69.42L413.3 68.57L414.59 67.78L415.92 67.04L417.27 66.35L418.64 65.72L420.04 65.14L421.45 64.61L422.89 64.14L424.34 63.72L425.81 63.35L427.29 63.05L428.78 62.8L430.28 62.61L431.8 62.47L433.31 62.4L434.84 62.38L436.36 62.42L437.89 62.52Z" id="a1wZ3c3nyy"></path><path d="M527.93 394.82L528.48 394.87L529.02 394.95L529.55 395.05L530.07 395.17L530.59 395.3L531.1 395.46L531.59 395.64L532.08 395.84L532.56 396.05L533.03 396.28L533.49 396.53L533.94 396.8L534.38 397.08L534.8 397.38L535.22 397.7L535.62 398.03L536 398.37L536.38 398.73L536.74 399.11L537.08 399.5L537.41 399.9L537.73 400.31L538.03 400.74L538.31 401.17L538.58 401.62L538.83 402.08L539.06 402.55L539.27 403.03L539.47 403.52L539.64 404.02L539.8 404.53L539.94 405.05L540.06 405.57L540.15 406.1L540.23 406.64L540.29 407.18L540.32 407.74L540.33 408.29L540.29 464.11L553.35 407.46L553.49 406.92L553.65 406.39L553.82 405.87L554.02 405.37L554.23 404.87L554.47 404.39L554.72 403.91L554.98 403.46L555.27 403.01L555.57 402.58L555.89 402.16L556.22 401.75L556.57 401.36L556.93 400.98L557.3 400.62L557.69 400.27L558.09 399.94L558.5 399.62L558.92 399.32L559.36 399.04L559.8 398.77L560.26 398.52L560.72 398.29L561.2 398.08L561.68 397.88L562.17 397.7L562.66 397.54L563.17 397.4L563.68 397.28L564.19 397.18L564.72 397.1L565.24 397.04L565.77 397L566.31 396.98L566.84 396.99L567.38 397.01L567.92 397.06L568.47 397.12L569.01 397.22L569.56 397.33L570.1 397.47L570.63 397.62L571.15 397.8L571.65 398L572.15 398.21L572.63 398.44L573.11 398.69L573.57 398.96L574.01 399.25L574.45 399.55L574.87 399.86L575.27 400.2L575.66 400.54L576.04 400.9L576.4 401.28L576.75 401.66L577.08 402.06L577.4 402.48L577.7 402.9L577.98 403.33L578.25 403.78L578.5 404.23L578.73 404.7L578.94 405.17L579.14 405.65L579.32 406.14L579.48 406.64L579.62 407.14L579.74 407.65L579.84 408.17L579.92 408.69L579.98 409.22L580.02 409.75L580.04 410.28L580.04 410.82L580.01 411.36L579.97 411.9L579.9 412.44L579.81 412.99L579.69 413.53L570.72 452.47L579.01 438.22L579.3 437.75L579.61 437.29L579.93 436.85L580.27 436.42L580.62 436.01L580.98 435.62L581.36 435.24L581.76 434.88L582.16 434.54L582.58 434.21L583 433.91L583.44 433.62L583.89 433.34L584.34 433.09L584.81 432.86L585.28 432.64L585.76 432.44L586.25 432.26L586.74 432.1L587.24 431.96L587.74 431.84L588.25 431.73L588.77 431.65L589.28 431.58L589.8 431.54L590.32 431.51L590.84 431.51L591.36 431.53L591.89 431.56L592.41 431.62L592.93 431.69L593.45 431.79L593.97 431.91L594.49 432.05L595 432.21L595.51 432.4L596.01 432.6L596.51 432.83L597 433.08L597.49 433.35L597.97 433.64L598.43 433.94L598.87 434.27L599.3 434.6L599.71 434.96L600.1 435.32L600.48 435.7L600.83 436.09L601.18 436.5L601.5 436.91L601.81 437.34L602.1 437.78L602.37 438.22L602.62 438.68L602.86 439.14L603.07 439.62L603.27 440.1L603.45 440.58L603.61 441.08L603.76 441.58L603.88 442.08L603.98 442.59L604.07 443.1L604.13 443.62L604.17 444.14L604.2 444.66L604.2 445.18L604.19 445.7L604.15 446.22L604.1 446.75L604.02 447.27L603.92 447.79L603.8 448.31L603.66 448.82L603.5 449.33L603.32 449.84L603.11 450.35L602.89 450.85L602.64 451.34L602.37 451.83L558.71 526.78L558.42 527.25L558.12 527.71L557.8 528.16L557.46 528.58L557.11 528.99L556.74 529.39L556.36 529.76L555.97 530.12L555.56 530.47L555.15 530.79L554.72 531.1L554.28 531.39L553.84 531.66L553.38 531.91L552.92 532.15L552.44 532.36L551.96 532.56L551.48 532.74L550.98 532.9L550.48 533.04L549.98 533.17L549.47 533.27L548.96 533.35L548.44 533.42L547.93 533.46L547.41 533.49L546.88 533.49L546.36 533.48L545.84 533.44L545.31 533.38L544.79 533.31L544.27 533.21L543.75 533.09L543.24 532.95L542.73 532.79L542.22 532.61L541.71 532.4L541.21 532.17L540.72 531.93L540.23 531.66L539.76 531.37L539.3 531.06L538.86 530.74L538.43 530.4L538.02 530.05L537.63 529.68L537.25 529.3L536.89 528.91L536.72 528.71L536.61 529.02L535.76 531.13L534.84 533.19L533.84 535.21L532.77 537.18L531.63 539.11L530.41 540.99L529.12 542.82L527.77 544.59L526.35 546.31L524.86 547.98L523.32 549.59L521.71 551.13L520.04 552.62L518.32 554.04L516.55 555.39L514.72 556.68L512.84 557.9L510.91 559.04L508.94 560.11L506.92 561.11L504.86 562.03L502.75 562.88L500.61 563.64L498.43 564.32L496.21 564.91L493.96 565.42L491.68 565.84L489.37 566.17L487.03 566.41L484.66 566.55L482.27 566.6L479.87 566.55L477.51 566.41L475.17 566.17L472.85 565.84L470.57 565.42L468.32 564.91L466.1 564.32L463.92 563.64L461.78 562.88L459.67 562.03L457.61 561.11L455.59 560.11L453.62 559.04L451.69 557.9L449.81 556.68L447.98 555.39L446.21 554.04L444.49 552.62L442.82 551.13L441.22 549.59L439.67 547.98L438.19 546.31L436.77 544.59L435.41 542.82L434.13 540.99L432.91 539.11L431.76 537.18L430.69 535.21L429.69 533.19L428.77 531.13L427.93 529.02L427.17 526.88L426.49 524.7L425.89 522.48L425.38 520.23L424.96 517.95L424.63 515.64L424.4 513.3L424.25 510.93L424.2 508.54L424.25 506.14L424.4 503.78L424.63 501.44L424.96 499.12L425.38 496.84L425.89 494.59L426.49 492.37L427.17 490.19L427.93 488.05L428.77 485.94L429.69 483.88L430.69 481.86L431.76 479.89L432.91 477.96L434.13 476.08L435.41 474.25L436.77 472.48L438.19 470.76L439.67 469.09L441.22 467.49L442.82 465.94L444.49 464.46L446.21 463.04L447.98 461.68L449.81 460.4L451.69 459.18L453.62 458.03L455.59 456.96L457.61 455.96L459.67 455.04L461.78 454.2L463.92 453.44L466.1 452.76L468.32 452.16L470.57 451.65L472.85 451.23L475.17 450.9L477.51 450.67L479.87 450.52L482.27 450.47L484.66 450.52L487.03 450.67L489.37 450.9L491.68 451.23L493.96 451.65L496.21 452.16L498.43 452.76L500.61 453.44L502.75 454.2L504.86 455.04L506.92 455.96L508.94 456.96L510.91 458.03L512.84 459.18L513.27 459.45L513.3 408.28L513.31 407.72L513.35 407.17L513.4 406.62L513.48 406.08L513.58 405.55L513.7 405.03L513.83 404.51L513.99 404L514.17 403.51L514.37 403.02L514.58 402.54L514.81 402.07L515.06 401.61L515.33 401.16L515.61 400.72L515.91 400.3L516.23 399.88L516.56 399.48L516.91 399.1L517.27 398.72L517.64 398.36L518.03 398.02L518.43 397.69L518.84 397.37L519.27 397.07L519.7 396.79L520.15 396.52L520.61 396.27L521.08 396.04L521.56 395.83L522.05 395.63L522.55 395.46L523.06 395.3L523.58 395.16L524.1 395.04L524.63 394.95L525.17 394.87L525.72 394.81L526.27 394.78L526.82 394.77L527.38 394.78L527.93 394.82ZM479.65 474.82L478.36 474.95L477.09 475.14L475.83 475.37L474.6 475.65L473.38 475.97L472.18 476.35L471 476.77L469.84 477.23L468.71 477.74L467.6 478.28L466.51 478.88L465.45 479.51L464.42 480.18L463.41 480.88L462.43 481.63L461.49 482.41L460.57 483.23L459.69 484.08L458.84 484.96L458.02 485.87L457.24 486.82L456.5 487.8L455.79 488.8L455.12 489.84L454.49 490.9L453.9 491.98L453.35 493.09L452.84 494.23L452.38 495.38L451.96 496.56L451.59 497.76L451.26 498.98L450.98 500.22L450.75 501.48L450.57 502.75L450.44 504.04L450.36 505.34L450.33 506.65L450.36 507.97L450.44 509.27L450.57 510.56L450.75 511.83L450.98 513.09L451.26 514.32L451.59 515.54L451.96 516.74L452.38 517.92L452.84 519.08L453.35 520.21L453.9 521.32L454.49 522.41L455.12 523.47L455.79 524.5L456.5 525.51L457.24 526.48L458.02 527.43L458.84 528.35L459.69 529.23L460.57 530.08L461.49 530.9L462.43 531.68L463.41 532.42L464.42 533.13L465.45 533.8L466.51 534.43L467.6 535.02L468.71 535.57L469.84 536.08L471 536.54L472.18 536.96L473.38 537.33L474.6 537.66L475.83 537.94L477.09 538.17L478.36 538.35L479.65 538.48L480.95 538.56L482.27 538.59L483.58 538.56L484.88 538.48L486.17 538.35L487.44 538.17L488.7 537.94L489.94 537.66L491.16 537.33L492.36 536.96L493.53 536.54L494.69 536.08L495.83 535.57L496.94 535.02L498.02 534.43L499.08 533.8L500.12 533.13L501.12 532.42L502.1 531.68L503.04 530.9L503.96 530.08L504.84 529.23L505.69 528.35L506.51 527.43L507.29 526.48L508.04 525.51L508.74 524.5L509.41 523.47L510.04 522.41L510.63 521.32L511.18 520.21L511.69 519.08L512.15 517.92L512.57 516.74L512.95 515.54L513.27 514.32L513.55 513.09L513.78 511.83L513.96 510.56L514.1 509.27L514.17 507.97L514.2 506.65L514.17 505.34L514.1 504.04L513.96 502.75L513.78 501.48L513.55 500.22L513.27 498.98L512.95 497.76L512.57 496.56L512.15 495.38L511.69 494.23L511.18 493.09L510.63 491.98L510.04 490.9L509.41 489.84L508.74 488.8L508.04 487.8L507.29 486.82L506.51 485.87L505.69 484.96L504.84 484.08L503.96 483.23L503.04 482.41L502.1 481.63L501.12 480.88L500.12 480.18L499.08 479.51L498.02 478.88L496.94 478.28L495.83 477.74L494.69 477.23L493.53 476.77L492.36 476.35L491.16 475.97L489.94 475.65L488.7 475.37L487.44 475.14L486.17 474.95L484.88 474.82L483.58 474.74L482.27 474.72L480.95 474.74L479.65 474.82Z" id="c2yVf8NVDh"></path></defs><g><g><g><use xlink:href="#b47VeWxyDH" opacity="1" fill="#1e1e1e" fill-opacity="1"></use></g><g><g><use xlink:href="#a1wZ3c3nyy" opacity="1" fill="#ffffff" fill-opacity="0"></use><g><use xlink:href="#a1wZ3c3nyy" opacity="1" fill-opacity="0" stroke="#323232" stroke-width="8" stroke-opacity="1"></use></g></g><g><use xlink:href="#c2yVf8NVDh" opacity="1" fill="#eaeaea" fill-opacity="0"></use><g><use xlink:href="#c2yVf8NVDh" opacity="1" fill-opacity="0" stroke="#323232" stroke-width="8" stroke-opacity="1"></use></g></g></g></g></g></svg>